<?xml version="1.0" encoding="UTF-8"?>
<svg width="180px" height="61px" viewBox="0 0 180 61" version="1.1" xmlns="http://www.w3.org/2000/svg" xmlns:xlink="http://www.w3.org/1999/xlink">
    <!-- Generator: sketchtool 40.3 (33839) - http://www.bohemiancoding.com/sketch -->
    <title>21760CED-10ED-48BD-A347-D4DC91D11740</title>
    <desc>Created with sketchtool.</desc>
    <defs></defs>
    <g id="Symbols" stroke="none" stroke-width="1" fill="none" fill-rule="evenodd">
        <g id="logo-/-desktop">
            <g id="logo">
                <g id="crv_logo_4cp_pos">
                    <path d="M137.491,52.6385 C138.275,53.605 139.4505,54.31 141.253,54.31 C143.0555,54.31 143.8395,53.422 143.8395,52.769 C143.8395,51.9325 142.899,51.724 142.481,51.6455 C142.0365,51.541 139.8945,51.149 139.424,51.0185 C136.3155,50.287 135.741,48.4845 135.741,47.3085 C135.741,45.088 137.752,43.0505 141.3315,43.0505 C143.317,43.0505 144.7535,43.6775 145.642,44.3045 C146.295,44.7225 146.713,45.1665 146.9745,45.48 L144.7535,47.544 C144.388,46.8385 143.5,45.558 141.201,45.558 C139.7115,45.558 139.0325,46.2115 139.0325,46.891 C139.0325,47.831 139.999,48.0925 141.671,48.38 C144.388,48.876 145.1455,49.007 145.9815,49.66 C146.7915,50.287 147.314,51.332 147.314,52.429 C147.314,54.467 145.485,56.8965 141.436,56.8965 C139.1105,56.8965 136.812,56.165 135.166,54.5715 L137.491,52.6385 L137.491,52.6385 Z M131.8475,48.0665 C131.6125,47.204 130.698,45.8455 128.8955,45.8455 C127.0925,45.8455 125.656,47.2825 125.656,49.895 C125.656,52.246 126.8835,53.9705 128.9475,53.9705 C130.933,53.9705 131.691,52.4555 132.0825,51.4105 L134.7735,52.821 C133.7545,55.6425 131.168,56.8965 128.8955,56.8965 C125.264,56.8965 122.4165,54.101 122.4165,49.9735 C122.4165,45.9765 125.29,43.0505 129,43.0505 C132.2915,43.0505 133.9635,45.2445 134.643,46.76 L131.8475,48.0665 L131.8475,48.0665 Z M117.74,56.5045 L120.8485,56.5045 L120.8485,43.442 L117.74,43.442 L117.74,56.5045 Z M117.74,41.4045 L120.8485,41.4045 L120.8485,38.2435 L117.74,38.2435 L117.74,41.4045 Z M113.2725,45.689 L113.2725,51.593 C113.2725,53.213 113.2725,53.9185 114.7615,53.9185 C115.232,53.9185 115.6235,53.892 116.0675,53.7615 L116.0675,56.4 C115.127,56.557 114.5,56.609 113.795,56.609 C113.1415,56.609 110.9475,56.609 110.3465,55.0155 C110.1375,54.493 110.1375,53.657 110.1375,52.351 L110.1375,45.689 L108.2305,45.689 L108.2305,43.442 L110.1375,43.442 L110.1375,38.818 L113.2725,38.818 L113.2725,43.442 L116.0675,43.442 L116.0675,45.689 L113.2725,45.689 L113.2725,45.689 Z M107.629,43.442 L104.311,54.8325 L103.58,57.2885 C102.6915,60.0315 101.725,60.998 99.295,60.998 C98.2765,60.998 97.78,60.8935 97.414,60.8415 L97.414,58.0985 C97.7015,58.1505 97.937,58.1765 98.2505,58.1765 C98.4855,58.1765 99.1645,58.1765 99.661,57.837 C100.0265,57.602 100.3925,57.027 100.3925,56.766 L95.664,43.442 L99.034,43.442 L101.934,53.1865 L104.4155,43.442 L107.629,43.442 L107.629,43.442 Z M91.301,56.5045 L94.462,56.5045 L94.462,38.0605 L91.301,38.0605 L91.301,56.5045 Z M86.1015,49.9995 C85.4745,50.313 84.769,50.548 83.3585,50.7835 C82.235,50.94 80.746,51.2015 80.746,52.586 C80.746,53.605 81.608,54.1275 82.862,54.1275 C84.4555,54.1275 85.579,53.396 85.9185,52.612 C86.1015,52.22 86.1015,51.8285 86.1015,51.4365 L86.1015,49.9995 L86.1015,49.9995 Z M78.029,47.2825 C78.081,46.6295 78.1335,46.081 78.551,45.3235 C79.8055,43.0505 82.914,43.0505 83.75,43.0505 C85.004,43.0505 86.5195,43.207 87.669,43.8865 C89.21,44.827 89.2365,46.0545 89.2365,47.4655 L89.2365,54.3885 C89.2365,55.3815 89.2365,55.721 89.811,56.5045 L86.1015,56.5045 C86.0755,56.191 86.023,55.669 86.023,55.486 C85.3435,56.0605 83.959,56.818 82.1565,56.818 C79.2045,56.818 77.428,54.9895 77.428,52.7425 C77.428,52.0895 77.5845,51.4885 77.846,50.966 C78.7865,49.085 80.798,48.6675 82.052,48.432 C84.743,47.8835 84.952,47.831 86.1015,47.4655 C86.1015,46.812 86.049,45.48 83.8805,45.48 C82.5745,45.48 81.869,45.898 81.5555,46.316 C81.216,46.734 81.242,47.0995 81.242,47.4655 L78.029,47.2825 L78.029,47.2825 Z M63.973,43.442 L67.1345,43.442 L67.1345,44.9835 C67.291,44.7485 67.6045,44.3305 68.153,43.9645 C68.937,43.39 70.1385,43.0505 71.1575,43.0505 C72.6465,43.0505 73.9265,43.7295 74.58,44.618 C75.3895,45.715 75.3895,47.126 75.3895,48.824 L75.3895,56.5045 L72.281,56.5045 L72.281,49.8425 C72.281,48.876 72.281,48.223 72.1765,47.8575 C71.889,46.708 71.053,46.107 70.034,46.107 C69.0155,46.107 68.075,46.708 67.6305,47.57 C67.1345,48.5365 67.1345,49.869 67.1345,50.8355 L67.1345,56.5045 L63.973,56.5045 L63.973,43.442 L63.973,43.442 Z M56.6575,49.895 L54.123,41.4045 L51.563,49.895 L56.6575,49.895 L56.6575,49.895 Z M57.5715,52.8995 L50.6485,52.8995 L49.5775,56.5045 L45.894,56.5045 L52.1115,38.0605 L56.0305,38.0605 L62.3265,56.5045 L58.643,56.5045 L57.5715,52.8995 L57.5715,52.8995 Z M175.1775,20.671 C174.787,17.9015 173.083,16.9435 171.2015,16.9435 C168.9295,16.9435 167.367,18.2565 166.8705,20.671 L175.1775,20.671 L175.1775,20.671 Z M180.006,27.842 C177.8045,30.7885 174.9645,32.3505 171.3435,32.3505 C166.6925,32.3505 162.2195,29.404 162.2195,22.872 C162.2195,16.9075 166.0535,13.535 171.0595,13.535 C175.7455,13.535 177.698,16.3395 178.053,16.872 C179.5085,18.931 179.828,22.02 179.8635,23.795 L166.728,23.795 C167.2255,26.5995 168.965,28.197 171.7695,28.197 C174.6805,28.197 175.852,26.493 176.3845,25.7475 L180.006,27.842 L180.006,27.842 Z M157.2495,17.1205 L157.2495,25.144 C157.2495,27.345 157.2495,28.3035 159.273,28.3035 C159.912,28.3035 160.4445,28.268 161.048,28.0905 L161.048,31.676 C159.77,31.889 158.918,31.9605 157.9595,31.9605 C157.072,31.9605 154.09,31.9605 153.2735,29.795 C152.9895,29.0845 152.9895,27.9485 152.9895,26.1735 L152.9895,17.1205 L150.3975,17.1205 L150.3975,14.0675 L152.9895,14.0675 L152.9895,7.784 L157.2495,7.784 L157.2495,14.0675 L161.048,14.0675 L161.048,17.1205 L157.2495,17.1205 L157.2495,17.1205 Z M144.0785,22.9785 C143.2265,23.4045 142.268,23.724 140.3505,24.0435 C138.824,24.2565 136.8005,24.6115 136.8005,26.493 C136.8005,27.8775 137.9725,28.5875 139.676,28.5875 C141.842,28.5875 143.3685,27.5935 143.83,26.5285 C144.0785,25.996 144.0785,25.4635 144.0785,24.931 L144.0785,22.9785 L144.0785,22.9785 Z M133.1085,19.286 C133.1795,18.399 133.2505,17.6535 133.8185,16.6235 C135.5225,13.535 139.7475,13.535 140.8835,13.535 C142.5875,13.535 144.6465,13.748 146.2085,14.671 C148.303,15.949 148.3385,17.6175 148.3385,19.5345 L148.3385,28.9425 C148.3385,30.2915 148.3385,30.753 149.1195,31.818 L144.0785,31.818 C144.043,31.392 143.972,30.682 143.972,30.4335 C143.049,31.215 141.1675,32.244 138.718,32.244 C134.706,32.244 132.292,29.7595 132.292,26.706 C132.292,25.8185 132.505,25.002 132.86,24.292 C134.138,21.7355 136.8715,21.1675 138.5755,20.8485 C142.2325,20.1025 142.5165,20.0315 144.0785,19.5345 C144.0785,18.647 144.0075,16.8365 141.0605,16.8365 C139.2855,16.8365 138.3275,17.4045 137.901,17.9725 C137.4395,18.5405 137.475,19.0375 137.475,19.5345 L133.1085,19.286 L133.1085,19.286 Z M132.0435,14.0675 L126.2215,31.818 L121.6415,31.818 L115.8905,14.0675 L120.2925,14.0675 L123.9845,26.28 L127.6055,14.0675 L132.0435,14.0675 L132.0435,14.0675 Z M109.2155,31.818 L113.4405,31.818 L113.4405,14.0675 L109.2155,14.0675 L109.2155,31.818 Z M109.2155,11.2985 L113.4405,11.2985 L113.4405,7.003 L109.2155,7.003 L109.2155,11.2985 Z M101.086,14.0675 L101.086,16.588 C101.6185,15.665 102.79,13.5705 106.766,13.677 L106.766,18.0435 C105.843,18.079 104.2455,18.1145 102.932,19.109 C101.1215,20.4935 101.086,22.304 101.086,25.2505 L101.086,31.818 L96.968,31.818 L96.968,14.0675 L101.086,14.0675 L101.086,14.0675 Z M89.2285,22.9785 C88.3765,23.4045 87.418,23.724 85.5005,24.0435 C83.974,24.2565 81.9505,24.6115 81.9505,26.493 C81.9505,27.8775 83.1225,28.5875 84.826,28.5875 C86.992,28.5875 88.5185,27.5935 88.98,26.5285 C89.2285,25.996 89.2285,25.4635 89.2285,24.931 L89.2285,22.9785 L89.2285,22.9785 Z M78.2585,19.286 C78.3295,18.399 78.4005,17.6535 78.9685,16.6235 C80.6725,13.535 84.8975,13.535 86.0335,13.535 C87.7375,13.535 89.7965,13.748 91.3585,14.671 C93.453,15.949 93.4885,17.6175 93.4885,19.5345 L93.4885,28.9425 C93.4885,30.2915 93.4885,30.753 94.2695,31.818 L89.2285,31.818 C89.193,31.392 89.122,30.682 89.122,30.4335 C88.199,31.215 86.3175,32.244 83.868,32.244 C79.856,32.244 77.442,29.7595 77.442,26.706 C77.442,25.8185 77.655,25.002 78.01,24.292 C79.288,21.7355 82.0215,21.1675 83.7255,20.8485 C87.3825,20.1025 87.6665,20.0315 89.2285,19.5345 C89.2285,18.647 89.1575,16.8365 86.2105,16.8365 C84.4355,16.8365 83.4775,17.4045 83.051,17.9725 C82.5895,18.5405 82.625,19.0375 82.625,19.5345 L78.2585,19.286 L78.2585,19.286 Z M70.306,31.818 L74.6015,31.818 L74.6015,6.754 L70.306,6.754 L70.306,31.818 Z M67.785,24.8245 C67.4655,25.641 66.862,27.0965 65.6195,28.5875 C63.8445,30.6465 61.04,32.457 56.957,32.457 C50.3185,32.457 45.2415,27.5935 45.2415,19.2155 C45.2415,10.695 50.7445,6.115 57.1345,6.115 C64.945,6.115 66.791,12.115 67.359,13.8545 L62.6725,15.097 C62.602,14.6355 62.389,13.5705 61.75,12.612 C61.217,11.831 59.8325,10.4105 57.241,10.4105 C53.1585,10.4105 50.3185,13.7835 50.3185,19.1445 C50.3185,24.86 53.336,28.0195 57.2765,28.0195 C59.62,28.0195 61.04,26.8835 62.0695,25.57 C62.886,24.4695 63.2055,23.5465 63.383,22.9785 L67.785,24.8245 L67.785,24.8245 Z" id="Fill-1" fill="#000000"></path>
                    <path d="M28.9795,18.616 C30.894,20.9205 32.443,23.4625 33.5985,26.171 C28.513,31.47 21.9565,35.344 14.5855,37.141 C12.795,34.748 11.378,32.1285 10.362,29.355 C20.7915,27.588 26.5985,21.4215 28.9795,18.616" id="Fill-2" fill="#1AC604"></path>
                    <path d="M14.741,0.129 C12.9275,2.5115 11.486,5.1225 10.4465,7.891 C19.104,9.4325 24.932,13.823 28.9795,18.616 C30.894,16.3115 32.443,13.7695 33.5985,11.061 C28.549,5.7995 22.0485,1.942 14.741,0.129" id="Fill-3" fill="#6817FF"></path>
                    <path d="M1.514,29.5525 C-0.484,22.432 -0.5465,15.0805 1.5885,7.671 C3.5285,7.4505 6.5705,7.245 10.4465,7.891 C7.599,15.5415 8.081,23.1275 10.362,29.355 C7.448,29.8615 4.284,29.9005 1.514,29.5525" id="Fill-4" fill="#000000"></path>
                </g>
            </g>
        </g>
    </g>
</svg>